<?xml version="1.0" standalone="no"?>
<!DOCTYPE svg PUBLIC "-//W3C//DTD SVG 20010904//EN"
 "http://www.w3.org/TR/2001/REC-SVG-20010904/DTD/svg10.dtd">
<svg version="1.0" xmlns="http://www.w3.org/2000/svg"
 width="192.000000pt" height="192.000000pt" viewBox="0 0 192.000000 192.000000"
 preserveAspectRatio="xMidYMid meet">

<g transform="translate(0.000000,192.000000) scale(0.100000,-0.100000)"
fill="#000000" stroke="none">
<path d="M275 1518 c-3 -7 -4 -242 -3 -523 l3 -510 245 0 c225 0 251 2 316 22
126 40 194 108 215 216 24 117 -18 204 -132 277 l-49 32 50 49 c140 138 93
346 -95 420 -56 21 -77 23 -302 27 -197 3 -244 1 -248 -10z m477 -196 c81 -50
66 -161 -27 -210 -21 -11 -67 -17 -147 -20 l-118 -4 0 132 0 132 128 -3 c112
-4 131 -7 164 -27z m4 -423 c24 -6 58 -24 74 -39 25 -23 30 -36 30 -75 0 -92
-73 -127 -273 -129 l-122 -1 -3 128 -3 127 126 0 c70 0 146 -5 171 -11z"/>
<path d="M1004 1505 c-10 -40 1 -136 17 -146 8 -5 62 -9 122 -9 l107 0 0 -424
c0 -352 2 -426 14 -435 9 -8 43 -11 93 -9 l78 3 3 433 2 432 119 0 c90 0 121
3 130 14 7 9 11 42 9 88 l-3 73 -342 3 -343 2 -6 -25z"/>
</g>
</svg>
